<svg width="38" height="32" viewBox="0 0 38 32" fill="none" xmlns="http://www.w3.org/2000/svg">
<g clip-path="url(#clip0_3_46)">
<path d="M3.6359 16.928L5.55038 18.832L9.68501 14.736L7.78662 12.832L6.91787 11.968C6.22608 11.28 5.85605 10.384 5.85605 9.408C5.85605 8.56 6.14564 7.792 6.64437 7.184C7.32007 6.336 8.3497 5.792 9.50804 5.792C10.4894 5.792 11.3903 6.176 12.0982 6.864L12.9509 7.68L14.8654 9.6L19.0161 5.504L17.0855 3.6L16.2168 2.768C14.4953 1.056 12.1304 0 9.50804 0C4.24725 0 0 4.224 0 9.424C0 10.72 0.257409 11.952 0.740051 13.088C1.22269 14.224 1.91448 15.232 2.78323 16.08L3.6359 16.928Z" fill="#EA4335"/>
<path d="M13.1117 19.552L19.0161 13.712L14.8653 9.60001L9.68499 14.736L5.55035 18.832L7.77051 21.056L9.68499 22.944L11.6799 20.96" fill="#FBBC04"/>
<path d="M23.1346 28.096L32.4657 18.832L28.315 14.736L19 23.984L13.8196 18.848L9.685 22.944L14.8654 28.096L14.8493 28.112L19 32L23.1507 28.096H23.1346Z" fill="#34A853"/>
<path d="M35.2168 16.08C37.1473 14.16 38.2574 11.216 37.9517 8.24001C37.5013 3.72801 33.7367 0.336007 29.1676 0.0320066C26.2879 -0.159993 23.6494 0.912007 21.7832 2.76801L14.8654 9.60001L19 13.712L25.9179 6.86401C26.7544 6.04801 27.9128 5.66401 29.1033 5.85601C30.6477 6.09601 31.9026 7.36001 32.1118 8.89601C32.2726 10.048 31.8865 11.168 31.066 11.984L28.315 14.736L32.4657 18.832L35.2168 16.08Z" fill="#4285F4"/>
</g>
<defs>
<clipPath id="clip0_3_46">
<rect width="38" height="32" fill="white"/>
</clipPath>
</defs>
</svg>
